<?xml version="1.0" encoding="UTF-8"?>
<svg version="1.1" id="Layer_1" xmlns="http://www.w3.org/2000/svg"
    xmlns:xlink="http://www.w3.org/1999/xlink" x="0px" y="0px" viewBox="0 0 909.5 825.3"
    style="enable-background:new 0 0 2051 1080;" xml:space="preserve">


    <style type="text/css">
	.st0{
		fill: #CCCCCC;
		fill-opacity: 1;
		stroke:white;
		stroke-opacity: 1;
		stroke-width:0.5;
		}
	.st1{fill:#FFFFFF;stroke:#fff;stroke-width:4;stroke-miterlimit:10;}
	.st2{fill:none;stroke:#fff;stroke-width:4;stroke-miterlimit:10;}
</style>
<g>
    <path id="IR02" name="IR02" class="st0" d="m69.85,48.35l-.3.3-5.2,5.6-1,2.5-1.4,6.4.7,3.5,1.2,3.2v3l-1.8,3.2-8.1,8.3-2.6,4.5-.5,2.6.6,2,3,4.1h.3v.8l.3.5.3.3.3.5.3,1,.1.7-.2.3-.1.3-.1,2,1.7,16.1,1,1.3.2.4v.3l.4,3.6-.2.3-.4.2-.5.4-.2.7.4.9.6,1.2.3,1.1,3.2,3.8,1.1,2.7-.5,7.4.7,3.1,1.7,2.7,13.8,9.1,6.1,1.1h5l6.6,6,.8,1.6,5.8,3.3,2,1.9,2.2.9,1.4-1,.8-1.2.1-.5.7-1.7,1.6-1.9,2.8-1.8,2.3-.5,1.2.1,1.3-1.2,2-1.3,2.1.3,1.5,1.5,1.9,1.2,2.4.5,1.5,1.3.2,1.3-.6.8,1.8,5.5v3.9l1.7,2.5,4.6.6,11.2-1.3,6.5,14.6-1.2.4-1.4.8-.2,1.2.4,1-.3.9-.8,1.6-2,2.3-3.5,1.6-5.4-.5-4.9-1.4-1.8-1.2-.8-.9-.9-.8-.7-.9-.3-.7-.6-.5-24.3,2.3-11.9-1.7-4.1,1.6-1,1.4-.1,2.8-2.3,3.5-7.6,2.4-1.5,1.6-.5.9-1,1.1-.7,2.8-2.6,3-.8,1.9-1.8,1.9-1.6.9v.1l-1.1-.4h-1.2l-1.6.8-.8.2-1,.7-1,.3-1-.1-.9-.9-.3-.9.3-1.2.6-1.2.6-1,.1-1.1-.5-1.2-1.5-1.9-.2-1.2.1-2.7-.3-1.2-.6-.6-.9-.7-.3-.7,1.2-.8-.9-1.1-.4-1-.1-2.5-.2-1.4-.5-1.5-.8-1-1.2-.1-2.7,1.1-1.3.1-1.3-.6-.6-.6-.1-.6-.1-.6-.2-.7-.4-.6-.4-.4-.3-.4-.1-.9-.6-.6-.7-.7-.2-.1-.7-.9.1-.9.2-.2.6-.2.2-.1v-1.3l.5-2,.9-2.1.1-1.1-.5-1.3-1.1-2.1-.7-.9-.8-.4-.6-.1-.6-.1-.5-.4-.4-.5-.6-.5-.7-.1h-1.4l-1.3-.2-.9-.7-.4-1,.5-1.4,1.7-2.1.7-1,.2-1.5-.2-1.3-.4-.9-.3-1.1.2-1.6.6-.6v-.7l-.3-.5-1-.5-.5-.6-.4-.2h-.4l-.9.3-.5-.1-.2-.3-.2-.9-.2-.4-.4-.2-.3-.1-.3-.2-.3-.4-.4-1v-.6l.6-1.7.3-1.1-.3-1-.4-1-.2-1.2.4-1.1.6-.5.6-.4.6-.7.1-1.9-1.1-1.3-2.7-1.7-.4-.8-.2-.8-.5-.6-1.7.3-.4-.5-.7-1.7-.7-.6-1.8-.1-.6-.4-.3-1,.6-1.7-.2-1-.2-1.3.1-1.4.3-1.5.4-1.2-.2-1-1-.8-1-1.1.2-1.8.4-.5,1.7-1.3.4-.8-.1-.6-1.7-2.1-1.2-1-1.3-.6-1.3.1-.6.4-.7.2h-.7l-.3-.7v-.4l.2-.9-.1-.3-.3-.3-.3.1-.3.1-.4-.1-.5-.7-.3-.7-.2-.7-.2-.6-.6-.3-1.6-.9-.6-.1-3.1.3-1.6-.2-.8-1.3.1-.5.1-.2.5-.6.4-.7-.1-.7-.2-.9.1-.7.3-.7.4-.8.4-.9,1.1-1.3.5-.9.4-1.2.4-.8.6-.5.9-.4.3-.4-.4-1.1.1-.6.3-.3.9-.4.3-.4.3-.9.3-1.2.2-1.1-.2-2.9,1.3-1.5,1.7-1.4,1.1-1.5v-.9l-.4-1-.6-.8-.6-.6-.8-.3-.6.2-1.5.9-2.4-.5-.7-.3-.4-.3-.1-.5.1-1v-.5l-.1-1.6v-.7l.6-2.4v-1l-.4-3.1.2-2.4v-1.2l-.3-1-.3-.4-.4-.3-.9-.2-.5-.3.1-.4.4-.4.2-.5-.2-1-.2-.8-.1-.7.2-1.2,1.2-4.4-.2-1.8-2.5-1.2-.8-.7-.6-.9-.5-1.4-.2-.4-.1-.5v-1.1l-.4-.3-.4-.4-.3-.4-.2-.9-.1-.5-.3-.4.7-1.1.7-.6.5-.8-.4-2.4.2-.9.9-1.9-.4-1.5-1.8-1.2-2.1-1.2-1.2-.9v-.5l.3-1.1-.1-.6-.5-1.2-.2-.5v-.5l.1-.4v-.5l-.5-1.2-.3-1.3-.2-.6-1.3-1.4-.2-.8.5-.7.9-.6.7-.3h.8l1,.1,1.1-.1,2.6-.7,1.1.2,3.2,1.6,1.2.1,1.1-.3,2.4-1.1.9-.6.8-1.3v-1.1l-.1-1.1.2-1.4.5-.7v-.7l-.1-.8-.1-.9.1-1,.2-.8,1.5-3.1.3-.8v-.3l.1-.7-.2-2,.2-.7L26.15.65l1.2-.4.7.6,1.3,1.9.6.7,2.8,1.3.9.8,3.9,2.8.1.2.7.4.1.1,1,.2h1.1l-.1.3-.2.2,1,.7.6,1.3,1.4,5.9.6,1.2.9.9-.4.7.2.4,1.2.9.3.1.5-.1.3.1.2.3.1.3.2.2,1.7,1.1.2.4.2.4.4.6.5.6.4.2.4.6.8,2,.3.6.4.6.3.6.5,3.1.3.9,1.3-.4,4.9,1.6.1-.1.3-.2.5-.2.4.1.1.4-.1.5v.6l.5.2.6.1.6.4.3.7-.4.9.3.6.4.3.5.2.4.5.2.5.4,1.3.2.5.5.3,1.1.5.2.4-.1.7-.2.5-.1.5.1.6.5.7,1,.7,1.1.5.5.1h0Z"/>
    <path id="IR01" name="IR01" class="st0" d="m141.45,35.95l.3,1.2.2.1.1.6.6.8,1.5.7.7,1.2.8,3.7-.2,1.2-.3,1.1-.9,1.4-4.1,2.8-3,.4-1.8,1.1-2.1.4-2.2-1.8h-1l-.1,1v1.7l-.3,1.7-.7.6-2.5-.6-1.7.2-.5.8-1.3.8-1.9,2.5-.7,3.7,1.3,3.3,2.4,1.4,3.2-1.2,3.3-1.8,3.1-.8,7,2,2-1.6,1.8-2.5,2.9-2.2.6-.8-.7-.2-.7-1,5.4-9.4,3.6-2.4,1.9.1,3.2-1.9,3-2.7,1.9.7-.7,6.9.8,1.1.1,4.5,2.7,6.8-.5,4.1-1.7,2.3v1.7l2.5,1.4.9,3-2.3,1.5-3.4-.5-3.2.9-2,2.2-3.8,2.7-1.4,2.8-1.2,1.6-1,2.2-.2,3.1.5,1.8,2.3-.9,3-.3,1.5,1.4.6.5,1.4.2,10.6-1.5,3.3,1.6,1.4,4.4.3,4.8,2.4,5.9,3.7,5.1,3.1,2.9.5,1-.5,1.7-1,2.3-.4,5.4,1.4,6.5,4.6,2.8.3-.1,1,.2,3.5,1.8,1.2,1.1.4,4.3,1.2,2.9,2.9,1.9,1,1,2.2,1.8-.2.3-.2.9h.4l.4-.5.7-.3,1.6-.1.7.4.6,1.3h.5l.6.3.7.3-.6.3-1.6,1.3-3.5,1.4-11.3-1.2-3.1.5-4.4-.7-14.8,1.8-1.7.7-1.6.9-2.6,2.8-3.1,1.5-1.4,1-2,3.3-7.1,7.3-.9,1.8v2.9l.3,1.9-11.2,1.3-4.6-.6-1.7-2.5v-3.9l-1.8-5.5.6-.8-.2-1.3-1.5-1.3-2.4-.5-1.9-1.2-1.5-1.5-2.1-.3-2,1.3-1.3,1.2-1.2-.1-2.3.5-2.8,1.8-1.6,1.9-.7,1.7-.1.5-.8,1.2-1.4,1-2.2-.9-2-1.9-5.8-3.3-.8-1.6-6.6-6h-5l-6.1-1.1-13.8-9.1-1.7-2.7-.7-3.1.5-7.4-1.1-2.7-3.2-3.8-.3-1.1-.6-1.2-.4-.9.2-.7.5-.4.4-.2.2-.3-.4-3.6v-.3l-.2-.4-1-1.3-1.7-16.1.1-2,.1-.3.2-.3-.1-.7-.3-1-.3-.5-.3-.3-.3-.5v-.8h-.3l-3-4.1-.6-2,.5-2.6,2.6-4.5,8.1-8.3,1.8-3.2v-3l-1.2-3.2-.7-3.5,1.4-6.4,1-2.5,5.2-5.6.3-.3.8.2.9.6.3.1h.3l1.3.1,2.7.6,4.2.1,2.4.9,1.1.5,9.9,2.1,3.1,1.4,2.8.7.4-.1,3.2-.4.8-.4,2.4-1.8,1-.4.6-.2,1.8-.1,1.1-.3.5-.1.7.2,4.9,2.1.8.3.9-.1,1-.4.8-.5.7-.6.7-.7.5-.9,1.3-2.7.6-.8.9-.7,2.7-1.4.8-.8.8-1.8.6-.9.3-.3.8-.5.4-.3.3-.3,1.2-2.1.6-.8.7-.6.8-.3.8-.1,1.3.6.7.2.6-.1,2.8-1.6h0Z"/>
    <path id="IR03" name="IR03" class="st0" d="m209.35,153.65l-.7-.3-.6-.3h-.5l-.6-1.3-.7-.4-1.6.1-.7.3-.4.5h-.4l.2-.9.2-.3-2.2-1.8-1-1-2.9-1.9-1.2-2.9-.4-4.3-1.2-1.1-3.5-1.8-1-.2-.3.1-4.6-2.8-1.4-6.5.4-5.4,1-2.3.5-1.7-.5-1-3.1-2.9-3.7-5.1-2.4-5.9-.3-4.8-1.4-4.4-3.3-1.6-10.6,1.5-1.4-.2-.6-.5-1.5-1.4-3,.3-2.3.9-.5-1.8.2-3.1,1-2.2,1.2-1.6,1.4-2.8,3.8-2.7,2-2.2,3.2-.9,3.4.5,2.3-1.5-.9-3-2.5-1.4v-1.7l1.7-2.3.5-4.1-2.7-6.8-.1-4.5-.8-1.1.7-6.9-1.9-.7-3,2.7-3.2,1.9-1.9-.1-3.6,2.4-5.4,9.4.7,1,.7.2-.6.8-2.9,2.2-1.8,2.5-2,1.6-7-2-3.1.8-3.3,1.8-3.2,1.2-2.4-1.4-1.3-3.3.7-3.7,1.9-2.5,1.3-.8.5-.8,1.7-.2,2.5.6.7-.6.3-1.7v-1.7l.1-1h1l2.2,1.8,2.1-.4,1.8-1.1,3-.4,4.1-2.8.9-1.4.3-1.1.2-1.2-.8-3.7-.7-1.2-1.5-.7-.6-.8-.1-.6-.2-.1-.3-1.2.3-.2.5-.6.2-.4.8-2.3,1.7-2.8.2-.6.4-.5,2.3-1.4,4.7-1.8.5-.3,1.4-.8,1.6-1.6,2.4-3,1.5-1.3,2-1.1,3.3-1.2,1-.1.6-.4,2.5-2.5.9-.5,5.6-3.2,2-2.1.8-.7.9-.7,1.1-.3,3.6.1.6-.2.5-.4.5-.8.7.1.9.7,2.9,2.7,7.9,9.5,3.2,3,1.3,1.8,1.1,2.2-.5.2-1.2.4-2.5,1.7-3,.5-1.5.9-1.4,1.3-.9,1.7-.1,2.1.7,1.6,1.1,1.7,2.7,2.6,2.7,1.1.7.7,1.4,3,.3.8-.1.8-.2.9-.3.8-.5.6-1.9,1.2-8.7,1.6-.2.4v.4l-.1.4-2.5,1.5-.4.7.1,2.5.9,1.7,3.1,2.5,6.2,3.1.6.5.1.5.3.9-.2,1.2.1,1,2.2,1.8.8,1.1.8.8h1.5l2.4-1.1h1.1l.5,1.3.3,1.6.7.8.7.7.8,1.3.8.8.7,1,1.1,1.5.7.8,1.2,2.1,1.5,1.5h.3l.3.6,1.5,1.4.9,1.3.3,1.1,1.1.4,1.8.4.7.8-.4,1.1-10.6,12.7-1,2.3-.4,3.2-1.5,2.3-.1,3.3,4.3,12,7.8,12.3,2.6,2.7,3,2.4,1.6,2,.1,1.7-.2,2.6.4,3.1.5,1.4-3.2-1.7-1.6.5-1.9,1.3-1.7-.2-1.3-.8-.9.4-.6,1v1l-.7,1-1.4.3-3.5-3.7-2-.7-1.3.4h0Z"/>
    <path id="IR19" name="IR19" class="st0" d="m229.45,154.85l-.5-1.4-.4-3.1.2-2.6-.1-1.7-1.6-2-3-2.4-2.6-2.7-7.8-12.3-4.3-12,.1-3.3,1.5-2.3.4-3.2,1-2.3,10.6-12.7.4-1.1-.7-.8-1.8-.4-1.1-.4-.3-1.1-.9-1.3-1.5-1.4-.3-.6,2.2.2,1.1-.3,1.3-.6,1.2-.7.9-1,1-.5h1.6l3,.6.1,5.3-.5,1.7.3,1.3.1,3.2.9,2.2.7,7.3,1.9,7-.4,1.1v1.4l.2,1.3.4.9,1.6,2.7v.6l-.1.6-.1.4.5,2.3,1,2.3,2.4,3.6,3.2,3.3,3.4,2.5,7.6,3.9,3.5,1.2,18.1,2.5,2-.3,1.6-.7,1.5-.3,1.7.9-.5.1-.5-.2h-.3l-.3.5,3.9,1.5,6.1,1.4,2.2.9,1.5,1.4-.2,2.1.4.8.6,2.2.5.8.7,1.1,1.1,3.2,1.4,2.3,1.6,1.6,3.4,2.6,2.4,2.8.7.4.9.3,2.9,2v.2l-.4,1.5-1.6,2.3-2.5,1.3-1.9,1.8-1,4.9-2.9,5.2-2.5,1.6-6.4-.6-3.9.8-1,.6-1,.3-8.8,4.8-2.4.4-4.3-.8-1-.7-1.5-.3-2.4.1-6.4-1.9-2.9-2.7-2.7-3.4-.6-1.9-.1-1-4.4-2.1-2.8-9.7-2-3.2-5.2-5.6-7.1-4.5h0Z"/>
    <path id="IR16" name="IR16" class="st0" d="m70.25,225.15v-.1l1.6-.9,1.8-1.9.8-1.9,2.6-3,.7-2.8,1-1.1.5-.9,1.5-1.6,7.6-2.4,2.3-3.5.1-2.8,1-1.4,4.1-1.6,11.9,1.7,24.3-2.3.6.5.3.7.7.9.9.8.8.9,1.8,1.2,4.9,1.4,5.4.5,3.5-1.6,2-2.3.8-1.6.3-.9-.4-1,.2-1.2,1.4-.8,1.2-.4,1.3,1.4,23.8,4.7.1.3,1.5,1.6.3.7.2,1.1.5,1.3.5,1.1.4.7-.4.4-.1.6.3,1.4-.1.4-.2.4-.2.3.1.5h.2l.8.1.9,3.3v6l-1,4.2-1.9,2-.8,2.1.7,1.5,12.9,7.9.9.8.9,1.6.5,1.3-7-3.8-1.7.4.9,2.4,1.3,1.8.6,1.2v1.5l-3.4,1.1-1.3,1.3-1.6.7-1.4-.4-2.2-4.6-1.1.1-2.5,2.8-.7,1.4,3.3,4.9,5,11.4,2.3,2.8,2,1.2,2.7,2.7,1.3,5.3-1,4.3-1.6,2.6-1.6,1.4-1-.5-1.5-3.8-.9.3-.5,1.6-1.8.9-2.8.8-1.5.8-1.4.1-2.1-.3-7.2-8.2-5.4-2.5-1.8-1.6-1.4-.1-.5,1.1.8,1.7-.1,2-1.6,1.5-6.8.4-.5,1.1-.3,3.8-.9.5-1.9-.1-2.9.3-2.8,2.9-2,.7-.6,1.3v1.6l-1,1.2-1.6.2-.9,1.3-.2,1.9-1.8.9-3.2.5-4.2-.5-2.9.3-1.5-1.7-.1-2.3.4-1.7-.2-1.2-1.1.1-2-1.4-11.3-15.5-9-7.1-1.3-.4.1-.2-.3-1.7-1.1-1.3-2.6-2.4-3-4.8-.7-1.7v-.5l.1-.5.3-.4.4-.3.1-.2.1-.2-.1-.3-.1-.2-.6-1.1-.4-1.2h.5l1.4.4.1-.8-.4-2.2v-1l.1-1,.4-.9.6-.7,1-.3,3.3.1.9-.2,2.4-1.3,1.9.1.9-.1.8-.7.6-1,1.4-.9.8-.7.5-.9.1-.9-.3-.8-.8-.5-1-.2-.9.5-.8.5-.9.4-2,.4h-1l-.9-.4-.4-.3-.3-.3-.2-.4-.2-1.2-.2-.2-.4-.1-1.4-.5h-.8l-.8.3-.9.5-.9.3-3-.1-1.5.5-.5-.1-.5-.1-.5-.1-1.1,1-.9.5-1,.1-.8-.6-.5-.1-1.8.6-.8-.3-.6-.8-1.2-2.9-2.2-3.1-1.4-1.3-1.3-.3-.6-.4-1.7-1.6-1.8-.6h0Z"/>
    <path id="IR17" name="IR17" class="st0" d="m99.55,266.85l1.3.4,9,7.1,11.3,15.5,2,1.4,1.1-.1.2,1.2-.4,1.7.1,2.3,1.5,1.7,2.9-.3,4.2.5,3.2-.5,1.8-.9.2-1.9.9-1.3,1.6-.2,1-1.2v-1.6l.6-1.3,2-.7,2.8-2.9,2.9-.3,1.9.1.9-.5.3-3.8.5-1.1,6.8-.4,1.6-1.5.1-2-.8-1.7.5-1.1,1.4.1,1.8,1.6,5.4,2.5,7.2,8.2,2.1.3,1.4-.1.1.9-.3,1.6-1.6,1.8-1.8,4.2-2.2,3.3-4.7.5-1.5.6-.7.9.4,2.3,2.4,1.9,3.5,1.9,1.5.3,1.3.7.7,2.3,1.2,1.9,4-4.2,2.2-1,1.1-.2.9,1.4.5,2.3-.6,3.8.2,2.6-1.5,1.2-5.3-1.1-4.6.3-1.8,2.6-.8,1.6-3.2-.4-1.4.4-.9.6-.1,1.3.4,3-.3,3.2-2.3,1.2-3.3.2-2.7,1.3-.3.8.1.6.3.4.3.3.2.5.1.6-.1,1.1v.6l.2.4-.7,1.1-.8.6-.8-.2-1.6-.2-7.5,1.8v1.7l1.3,2,.7,1.4-.7,3.7-1,1.9-7.4-.3-8,2-5.5-.4-11.8-3.9-3.5-3-3.1-1.9-3.8-.9-3.8-.3-7.1-2.9-7.3,1-2.7-.1-.9,1,.6,2.2-.5,3.6-1.8,5.7-1,8.2-1,.9-.2-.5-2.2-1.6-.7-.7-.7-.9-.4-.9-.4-1-.2-1.2-.3-.9-.6-.7-.8-.6-.6-.7-4.2-7.7h-.1l-.1-.1h-.1l-1.4.2-1.2-.1-1.1-.6-.9-1.3,1-.5.4-.3.4-.4.7-1.6.4-1.5.6-1.2,1.1-1,.7-.8,1.9-1.5.5-.7v-.6l-.3-.5-.3-.5-.3-.6.1-.6.7-1,.2-.6.7-2.7.1-1.4-.3-1.3-.7-1.1-1-.6h-1l-1,.7-.9-.6-.6-1.3-1.4-4.7.4-.7,2.5-.6.4-.3.3-.3.2-.4.3-.5v-1.7l-.4-2.3.2-1.6,1.9.6,1.6.8,1.4.4,3.3.2,1,.4.3-.1.2-.3.1-.6v-.7l-.1-.3-.6-.8-.1-.9v-1.1l-.2-1.1-.2-.4-.2-.3-.2-.3-.2-.6-.2-.5-.3-.4-.4-.3-.4-.3-.7-.8.4-.9,1.3-1.5.1-.7-.1-1.1.1-.7.5-.7.6-.2,1.3-.1,1.3-1,.3-1.4-.1-1.4.3-1.1,1.1-.1.8.5.6.3,1.3.4.7-.9.3-1.4.4-1.1.2-1.1-.5-1.5-.1-.8v-.7l.2-.7.5-.5.3-.1h.7l.3-.2.1-.3-.1-.7v-.2l.6-1.1.4-.1.7.2,1,.6.5.2h.6l1.4.6.7-.2.7-.6,1.3-.8h.4l.9.2,1.2-.4.6-.1.5-.3.4-.7-1-1.1.6-1.7,1-1.7.2-1.5-.7-.6h-1.8l-.7-.5-.1-.9.4-.7.6-.7.2-.6h0Z"/>
    <path id="IR05" name="IR05" class="st0" d="m80.75,361.25l1-.9,1-8.2,1.8-5.7.5-3.6-.6-2.2.9-1,2.7.1,7.3-1,7.1,2.9,3.8.3,3.8.9,3.1,1.9,3.5,3,11.8,3.9,5.5.4,8-2,7.4.3,1-1.9.7-3.7-.7-1.4-1.3-2v-1.7l7.5-1.8,1.6.2.8.2.7.9,1,2.5.5,2.8-.3,1.8-.6,1.2-1.1,1.2-2.7,1.8-.9,1.3-16.5,4.7-2.9,2.8-1,2.5-.9.1-.8.4-.1.8-.7,2.2v.4l.8.5,1,1.8,1.5.8,1.2,1.6,1,.4,2.6,1.5.5.2.2.5-.1.6-.6,1,.2.4.6.8.6.5.9.4,1.7.6.1.2.1.2.1.3.4.1.2-.1.3-.2.3-.1.4.1.2.2.2.3,2.4,1.8.8.3v.8l.9.9,1.2.7,2,.5,5.8,2.9.5.6.2.7.6.2h.7l.5.3,1.2,1.3.9,1.8.6.6.9.3.7.4,1.5,1.7,5.6,7.3,7.6,16,.9,1.3.6.6-4.4,10.1-3.4,4.7.1,2.9.5,3.5-1.7,2.8-4.9,3.2-1.2.5-.1-.1-1-.4-.7-.1-.4-.5-.4-.5-.6-.4-.7-.2-.3-.3-.1-.4.1-.8.2-.6.3-.5.2-.5.1-.8-.2-.7-1-.7-.2-.8-.5-.2-.3-.3-.8-1.2-.2-.3-.2-.3-1.4-1.3-.2-.3-.3-.8v-.3l.2-.2.4-1,.2-.3.2-.4-.1-.6-.2-.4-1.3-1-.8-1-.5-.9-.6-.7-1-.5-2.7-.9-.6-.1-2.2,1.2-.8.3-1.7.2-1.5-.3-1.4-.8-1.5-1.1-14.2-12.4-2-2.2-3-1.9-2.2-1.7-.2-.1-4.4-2.6-1.3-1.3-4.7-2.2-5-1.6-5.5.6-2.8-.3-1-2.3.6-.6.8-.7.7-.7.3-1-.3-.7-.7-.6-.9-.4-2-.3-.7-.5.1-.7.9-.5,1-.1h.8l.8-.1,1-.8,1.3-1.2.6-.8.3-.8v-.5l-.5-.3-.2-.5v-.5l.3-1.1v-.6l-.4-.9-.7-.7-1.5-1.2-1.9-2.6-1.6-1.6-.2-.8v-.9l-.2-1.2-.3-1-.6-1-1.6-2-.1-.1-.2-.1-.1-.1h-.1l-.2-.1-.3.1-.2.1-.9.8-1.4.2-1.4-.3-.8-.7.7-1,2.3-1.3.5-.9-.3-1.3-1-.6-.8-.9.2-1.7-1,.2-2.3.1-.9.3-1.4,1.4-.7.5-.9.2-.3-.4v-2l-.1-.4h0Z"/>
    <path id="IR10" name="IR10" class="st0" d="m168.15,446.95l1.2-.5,4.9-3.2,1.7-2.8-.5-3.5-.1-2.9,3.4-4.7,4.4-10.1,2.5-3.8,6.5-17,2.5-1.9,11.6-.8,3.3-1,5-.4,4.9,1.5,2.4,2.3,3,.9,10.4,1.1,11,7.6,6.6.6,3.5-.7,2.2,5.6,2.6,1.4,4.1-.3,4.7,1.8,1.9,2.6-1,1.6-1.2,4.2.2,1.6.7,3.4,7.1,11.2,1.5,3.8,1.1,1.5,1.2.8.7.8,2.2.7.8.8.6,1.5,1.3,4.6,1.4,3.4,1.5,2.3,2.3,2.1.9,1.6,4,4.3,1.4,3.1-.1,2.6-2.6,3.2-1.7,3.2-3.1,4.2-5.6,5.1-3.7,1.5-1.6,1.2-1.2,1.6-.7,1.8v3.2l2.1,7.8.2,2.2-.3.9-.2,1.6-.4,1.8.3,1.3,8-1,1.9,2.4,3.7,3.7,4.5,2.4,2.6,1.9.8,2.9-2.7,6.4.4,2.8,1.5,1.7.8,3.7.8,8.5-7.2-.3-2.7-1.4-4.9.9-3,1.5-1.3-.5-1.6-.2-1.8.2-1.7.7-14.8,9.4-1.7.7-1.5-.3-1.3-1.9-.2-.9v-2.5l-.4-.9-.3-.5-.1-.3-.2-.2-.5-.3-.5-.2-.4-.1-1-.1h-.5l-1,.3-.6.1-.5-.2-.7-.5-.4-.1-1,.2-1.7.7-1,.2-1.2-.1-.5-.4.1-2.3-.2-.1-.6-.5-.2-.3v-1.1l.1-.5.2-.3-.1-.4-.5-.3-.3.9-.5.9-.7.7-.8.1-.8-.6-.4-.7-.5-.5-.9-.1-1.1-.4-3.1-1.8-.6-.6-.3-1.8-.9-1.1-1.2-.6-1.5-.4.5-.9.8-.2,1.9.3h1l1.6-.6.8-.1,1,.3,1.9,1,.7.2,1,.1.8.3.7.6.6.9.2-.8.9-1.6,1.4-1.7.3-.6v-1l-.9.2-.7-.4-.5-.9-.3-2-.6.3-.7.8-.8.6.1-.7.1-.2.2-.3-.4-.6-.4.1-.5.4-.7.1-.3-.2-.5-.7-.3-.2-.3.1-.4.2-.3.1-.9-.2-.9-.2-.8-.1-.8.5-1.7-.3-1.3.9-.3,1.1,1.2.6,1.5.3,1.2.7.4,1-1,.9h-.8l-2.5-.3-.6.1-2.5,2.4-.2.3-.4.6-.3.7.6.5-.2.4-.3.4-.2.3.4,1.2.8.8.9.8.8.8.4,1,.3,1.2.3,2.5-.1.7-.4,1.1-.2.6v.6l.3,1v.6l-.3,1.1-.6,1-.8.7-1,.2-3.2-.4-.8.4-.9-.4h-3.3l-2-1.1-.8-.2-.1,1,.2.6.7,1.1.1.7-.2.5-.3.5-.4.4-.4.3-1.1.3-3.5-.3v-.4l-.2.3-.1.2-.3-.2-1.5-.4-.7-.4-.6-.6-.3-.3-.2-.3-.5-1.1-.1-.7-.8-2.7-.1-.1-.3-.6-1-1-.5-1.3-.1-.4.1-.6.3-.4.5-.4.3-.5.2-.6-.1-.6-.3-.5-.3-.5-1.8-1.7-1.5-1.7-1-1.6-.4-.4-.6-.2h-.6l-1.7.3h-.6l-.5-.1-.6-.2-.3-.4-.2-.5-.4-2.4-.5-1.2-.6-1.1-.7-.8-.5-.3-.6-.2-4.9-.7-.1-1.7.1-26.4-.1-.7-.5-.3h-15.5l.2-13.3.1-9.5,7.2-19.5.3-1.3-.2-1.2-.6-.9-1.9-1.4-.7-.9-.2-.4-.2-1-.3-.5-.4-.3-.8-.6-.3-.4-1.7-3.1-.2-.9-.5-1-1.7-.8-.7-.9-1.1-2.4-.6-1h0Z"/>
    <path id="IR31" name="IR31" class="st0" d="m646.25,113.55l-5.7,3.5-1.7,1.8v2.6l-.6,2.2-.7,2.1,1.8,1.3,21.1,1,.9,1.1.6,2,1.1,2.5,4.2,4,1.3,2.7.3,2.4-1,1.9-1.3,1.5-.4,1v1.2l-.5,1.8-1.7,2.3-2.8,8.4-2,2.4.3,2,2.3,1.6,1.3,1.5.8,1.6,1.3-.2.7-1.7.6-.3.4,1.5.9,1.4,1.6.8.2,1.4-2.8,3-.3,1.6.6.9,1.7,1,.3,1.9-1.5,4.6-1.8,1.6-3.6.9-13-2-31.2-17.3-7.5-.4-11.3,9.2-2.8,3.7-.3,2.6.3,2.1-.1,1.6-7.2,1.2-2.3-.9-4.5-.7-2.7-.9-5.3-4.6-5.6-6.3-.9-1.9.2-1.2.9-3.5.2-4-.2-1.5-.3-.7-.3-.4.3-.9,1.2-1,2.7-.8.5-1.4-2.3-.9-1.8.3-3.4-2.4-7.1-9.5,1.4-1.3,3.5-6.2,3.4-1.4,1.4-1.3,1.5-.6,1.2-.2,5.5-2,2.6-3.6-.9-3.6-1.9-1.5-2.2-1.1-1.6-1.9-.1-2.7,1-3.8v-1.4l-.6-2.6-.1-2.1.3-1.7-.3-4.2,1.5.6.7.1,4.1-.7.2-.1.3.2.2-.1.2.3.1-.3h.3l.3.2-.1-1.3.6-.9.3-.2-.1-.5-.2-.3-.1-.7h-.2l-.3-.3h-.2v-.2l.1-.1-.5-1.6.2-.1.3-.3-.2-.2.2-.2.1-.3.4-.1,2.1-1.9,1.3-1,1.1-.4,4.3-.2.8.2.7.4.6.5.6.3.8-.2.5-.2h.1l.8-.3.1-.1,2.2-1,2.3-.4.5.1,1.8,1.5,1.6.9.7.3,7.1,1.3,1.1.4.4.5.2-.2.2.1,1,.1.6-.4h.3l.4-.1.4-.2.5-.8.2-.2.6-.4,1.3-.6.2-.2.8-1.7.6-.7.2-.1h.3l.5.1,1,.3.5.4.2.3v.5l.2.5,1.1,1.9.8,2,.6.9,1.5,1.6.6,1.8,1,1.5.2,1-.1,1-1,3.2,1.2,1.6,6.8,2.7.5-.1.1.2h.6l.6-.4.4.1.4-.3.5.1,2.4.7h2.3l.5-.2.1.1.7.1.2-.1.5.3.6.5.6.4h.2Z"/>
    <path id="IR27" name="IR27" class="st0" d="m572.45,102.65l.3,4.2-.3,1.7.1,2.1.6,2.6v1.4l-1,3.8.1,2.7,1.6,1.9,2.2,1.1,1.9,1.5.9,3.6-2.6,3.6-5.5,2-1.2.2-1.5.6-1.4,1.3-3.4,1.4-3.5,6.2-1.4,1.3-1.9,1.6-8.8,13.6-3.9,8.6-.9,6.5-1.6,4.1-2.4,1.1-16.8-2.3-4,.4-8.2,4.8-8,6.2-2.9,3.2-6.7,3.1-3.3.8-3.6-.6-9.3.2-1.9-3-5-5.1-10.4-6.3-1.6-2.9-.5-1.4-.1-.8,7.1.6.7.5.9.2,5.8-1.6.6-.5.3-.9v-6.1l-.2-1-.7-.4-.9-.4.1-.8,1.1-2.1-1.1-1.7-.8-2.2-1-5-1.4-3.8-.2-.9-.5-5,12.9,1.2.4-.1,2.3.3.1-.2.7-.5,1.1-1.2,2.9.2,2.4-.7,1.9-1.7.4-.2.2-.2h.2l.3-.4.5-.1.2-.2.3-.3.3-.4.2-.1.3.1.1-.1v-.1l.2.1.2-.4.2-.2h.1l.2-.2.3.1.4-.2h.2l.3-.3v-.1h.2l.3-.1,2.8.7h1.1l.7-.4h.1v.2l.3-.1.1.1.1-.1h.3l.7-.5.4-.2.3-.4.2-.4.5-.5-.1-.2h.1v-.1l.1-.1v-.1l.1.1v-.2l.2-.1.8-.6.1.1.1-.1.1.1.2-.2.1.2v-.3h.3l.1-.2.1.1h.1l.1-.3-.1-.2.7-.6.1-.3.3-.2.2-.7v-.7l.1-.4.1-.1v-.1l.2-.4v-.2l.1-.1.4-2.1-.3-.6h-.3l-.5-.5-.2-.4v-.8l.1-.1-.1-.1v-.1l.1-.1.1.2.1-.1-.2-.3.2.1v-.2l.2-.2h.3l-.1-.2v-.2h-.1v-.2l-.1-.2h.2l-.2-.2h.2l.1-.2h.2l-.1-.2h.3l-.1-.1v-.1l-.1-.1.2-.1.1-.2.1-.1v-.1l-.1-.1h.3v-.1l-.1-.1.1-.1-.1-.3h.1l-.1-.3h.1v-.1l.1.1v-.1l-.1-.2.1-.4.1-.1.1.1v-.1h.2v-.1l.1-.1v-.2l.1.1.1-.2.1-.1-.1-.1h.3l-.2-.1.1-.2h-.2v-.1l.2.1v-.1h.2v-.2l.1-.1.2.1.1-.1-.1-.1.1-.1h-.1l.1-.2h.1v-.1h.1l.1-.2h.1l.1-.2v-.1h.1v.3l.1-.2h.1l-.1-.2h.2v.1-.2h.1l.1.1.1-.1-.1.1.1.1.2-.2.1.2h.2l-.1.2h-.1.1l.2-.2-.1-.2h.2l.1-.1.1-.1.1-.2h.2v-.1l.2.1v-.3h.2v-.1l.5-.2.1.2v-.1l.1.1.1-.2.1-.1v-.1l.2.1h.1v-.1h-.2l.2-.1v-.1h.1l.1-.1.4-.2.1-.2h.1v-.1h-.1l-.1-.2.2-.2.4-.3.4-.1-.1-.1.1-.1.3.1-.1-.1.3-.2v-.2h.4v-.1h.1v.1h.1l.1-.1-.3-.3.2-.1.2-.1v-.2l.2.1.1-.2h.7l-.3-.1.2-.2h-.1l.1-.1v-.1h.2v-.1l.3-.1-.1-.2h.2v-.1l.2-.1v-.2l-.1-.2h-.1l.8-.9h.1l.1-.2.1-.2.2-.3v-.3h.3l.2-.1v-.1l.1.1.1-.2.2-.1-.1-.4h.1v-.1h.5l.5-.2.4-.5.3-.8h.2v-.1h.1l-.1-.2h.2l.1-.2h.1l.1-.1.1.2.1-.1h.2v-.1l.1.1.2-.1-.1-.2.1.2.3-.1.1.1.2-.4.2.1v-.2l.2.1v-.2h.1l.1.2h.3v.1h.1l.1.1h.3l.1.4h.2l.1-.2.2.2v-.1l.2-.1-.2-.2h.2l-.1-.2h.1v-.3l.1-.2.3-.1v-.1h.2v-.1l.1-.1v-.2h.1v-.1l.2-.1v-.1l.1.1h.1l.3.1v-.2l.2-.1.1.1.3-.1v-.3l.2.1.1-.2.2.1v-.2h.1l.2-.2.1.2.1-.1v.1l.8-.6,1.1-.5.1-.3.4-.3,2.9-1.4.4-.4,1-1.1.7-.7.8-.3,3-.1,6.4-1.4h1.1l1-.1.6-.3,1-.2h.6l3,.7,1.8,1,.7.3h2.4l.8.3,1.3.6.6.2.7.1,6.8-1.2,1.9.2.2.1h0Z"/>
    <path id="IR30" name="IR30" class="st0" d="m775.95,335.85l-3.7.6-29.3.1-6.1-2.2-4.7-7.6-2.5-2.2-4.9,1.9-4.4,2.5-14,2.1-1.3,1.5-1.3.9-4.8-1.5-7.5-.9-2.5.9-.7,1.7.2,1.4,1.9,3-.5,3.8-1,4.2.5,2.5-.1,2.2-1.2,2.9-.8,3.2.3,2.5,1.3,1.2,1.1.8.5,1.4.4,1.6,7.1,5.2-1.4,2.6-.3,1.6-2.3,3.8-2.1,2.1-14.8,9.9-6.6,9.9-1.5,6.6-2,3.5-1.2,1.4-1.2-.9-3.9-5.9-4-2.5-3-1.4-1.1-.9-4-2.3-3.1-7-3.5-23.8-1.9-3.6-2-2.6-12,2.8-9.4-1.1-2.2-3.5-2.9-16.3.4-9.7,5.9-17.8,3.2-5.8,18.7-13.3,4.5-4.4.7-3.7-1.6-3.6-13.8-10.6-5.2-1.4-11.9,3.1-18.7,8.9-19.2,5,7.5-9.4,6.1-5.5,5.4-3.2,9.9-3.8,1.4-1.1,2-4.7,8.2-14.1.8-4-3.1-3.6-11.2-9.1-1.3-3.3-1.5-7-.9-11,.7-6.3,1.9-3.7,1.3-5.4-1.2-4.7-1.9-1.1-1.5-.1-.9.3.1-1.6-.3-2.1.3-2.6,2.8-3.7,11.3-9.2,7.5.4,31.2,17.3,13,2,3.6-.9,1.8-1.6,1.5-4.6-.3-1.9-1.7-1-.6-.9.3-1.6,2.8-3-.2-1.4-1.6-.8-.9-1.4-.4-1.5-.6.3-.7,1.7-1.3.2-.8-1.6-1.3-1.5-2.3-1.6-.3-2,2-2.4,2.8-8.4,1.7-2.3.5-1.8v-1.2l.4-1,1.3-1.5,1-1.9-.3-2.4-1.3-2.7-4.2-4-1.1-2.5-.6-2-.9-1.1-21.1-1-1.8-1.3.7-2.1.6-2.2v-2.6l1.7-1.8,5.7-3.5h.2l.7-.1.1-.1.4.1.1.2.2.2.4.9.3.3.7.3h.8l.1-.1.7-.1.7-.1h.1l1.6.5.4.2h.1l4.9,2.4.5.2.4.2.3.2.8.3.6.2,2,.4.5.2h.7l.9.1.3.1.4.1.8.4.4.4v.4l-.1.4v.5l.8,1.4.1.4.1,1.1v.8l.3.7.8.7.8.3,3.7.5.5.3,1.3.9.6.2.5-.1,1.4-.1,2.4-.3.4-.2.4-.2.7-.9.4-1,.6-.9.7-.5h.5l.4-.1.8.4,2.3,2.1,2.1.9,1,.1,1.1-.1.4-.2.3-.4.3-.3h.6l1,.2h.5l.5-.2.1-.1.5-.7.1-.9.3-.4.6.4,2.2,1.2,3.6.9,1.9.8.7.5.6.2,1.4.2.5.3,1.5,1.6,6.3,4.5.5.1h.5l.6-.2,2-1,1.1.3.2.1.8.8.9,1.3.2.8-.1,1.3.2.6.2.5-.2.5-.3.6-.2.7.1,1.2,1,4.1.5.8,3,2.5.9,1,.2.4v.3l-.2.2-.1.1v.4l-.2.5.2.4.7.2.4.3.3.4.4.2h.4l.4-.2,1.1-.4.7.1.8.9.3.9.3,1.1.3,1,.2.1.1-.1.7.4h.1l.3-.4.5-.8.5-.3h.5l5,1.7,1.8.6.1.1,3,2.5,1.7,1,.6.1,1.9.4,1.4.2,1.7.8,1.4,1.8,1.8,3.8,2.2,3.3,5,6.1.9,1.6,1.4,3.6,1,1.8,1.5.8h.2l7.3-.1,6.6-.1,10.1-.2,5.5-.1,4.9-.1,1.4.3.9.1,1,.2.9.1.4,2,.4.9.2.5v1.5l-.1.2v.1l-.1.3-.2.5-.1.1-.3.4v.3l-.2.4.1.7.3.8-.1.7-.3,1.3-.1.4-.5,2.4v.2l-.2,1.8-.1.8.3.7.3.8.1.1v.1l-.2.2v.2l-.2.4h.1l.4.2.4.3.3.3.2.4.1.6.1.6v1.4l.2.4v.1l.7,1.2.3,1.5.4,2.1v.2l.1.7v.9l.1.3v.1l-.1.2-.3.4-.2.3-.2.4-.1.1-.1.4v.1l-.1.5v.5l-.2.6-.4.3-.4.2-.3.3v.2l-.1.5.1,1.1v.6l-.1.1-.1.5-.1.3-1.1.5-.2.4-.3.4.5.2,1.1.2,1,.5.6.6.2.1.7.9.1.1.4.8.4.7.1.2v.3l.3.8.1,1.7.1.3.1.9.1,1-.2.6-.1.7.1.1.2.3v.6l-.3,1.3v.2l-.1.2.1.6v.4l-.2.4-.1.1-.5.5-.1.2-.1.2.1,1.5.7,1.3,1.1,1.8.4.6v.1l.5,2.2.1,1.2-.3,1.2-.7,1.1-1.1,1.3-.5,1.2-.4,1.8-.2.6-1,1.3-.3.6-.2,1.2.2,3-.4,1-.9.5-1.1.2h-1l-.7.6-.3,1.2v1.8l.3.3.2.5v.6l-.5.2-.3.3.3.6,1.7,2.2.1.3-.1.6-.1.5.1.5.4.5-1.1,1.6-.3.9-.3,2.3-.7,2.2-.2,1.1-.1.6-.7,1.1-.1.7v.6l.2,1,.1.5-.2,2.1-.4,1.9-1.5.4-.2,1-.9,1.6-1.5,1.2-.9,1v1.4l.1,1.4-.2,1.4-.5.7-.5.1h-.6l-.7.1-.6.3-.3.4-.3.5-2.1,2.4-.9.6-1.2.4-2.6.3-1.1.6-.7,1.2.5.1.4.2.3.4.4,1.4.4.4,1.2.5.5.5.5.7.7,1.5,3.5,4.5.6,1.1-3.6.2-4.7.3-3.4.2.4,1.2-.8.8-2.2,1.2-1.7,1.7-1.5,2-1.3,2.7-.3,2.5.1.8h0Z"/>
    <path id="IR29" name="IR29" class="st0" d="m775.95,335.85l.5,4.9,1.4,8.7-.1,2.2-1.5,3.3-.4,1.8,1.2,4.2,3,2.8,3.8,1.6,3.7.3,3.4-.2,1.9.1,1.5.4.8.4.8.8.4.8-.1.1-.3.6-.7.2-2.3.2-.8.5-.1.9.1.9.1,1-.2,1.1-.5.6-1.6,1-1.3,1.2-1.8,2.5-2.3,3.1-2.6,3.4-2.3,3.1-.2.8v4.5l.7,3.5,1.4,4.6,1.6,5.5,1.6,5.6,1.7,5.9,1.9,6.4,2.1,7.8,1.6,5.9-.1,4.6-.6,4.4-.3.9-1.2,1.6-.4.9.2.3.4.2.2.3-.4,1.3.1.5.3.6.2.6v1.2l-.3,3.4.1,2.7.6,5.1-.6,4.1.2,1.3.7,2.7.5,5.1,1.6.7,4.7.7,7.9,1.2h.1l.9,3.2-.7,6.6-3,7.3-2.2,8.1-1,14.3.2,4.2,2.4,10.6-.1,1.7-.8,1.1-1.5.7-6.5.2-3.8-3.3-7.4-10.6-5.8-4.3-4.4-1.2-1.1-.9-1.6-1.7-2.6-.5-35.3,10.1-1.5.7-18.8-27.4-6.8-5.1-53.5-24.2.6-1.1,2.5-6.4,4.8-7.5,1.8-4.8,6.2-8.5.8-2.6.4-2.7,1.1-3.1.1-3-1.9-3.2-1.4-3.1-.1-1.7-1.4-1.6-.7-1.2-.3-1.3.8-2,1.2-2.1.4-1.7-.2-4.3,1.2-1.4,2-3.5,1.5-6.6,6.6-9.9,14.8-9.9,2.1-2.1,2.3-3.8.3-1.6,1.4-2.6-7.1-5.2-.4-1.6-.5-1.4-1.1-.8-1.3-1.2-.3-2.5.8-3.2,1.2-2.9.1-2.2-.5-2.5,1-4.2.5-3.8-1.9-3-.2-1.4.7-1.7,2.5-.9,7.5.9,4.8,1.5,1.3-.9,1.3-1.5,14-2.1,4.4-2.5,4.9-1.9,2.5,2.2,4.7,7.6,6.1,2.2,29.3-.1,3.7-.6h0Z"/>
    <path id="IR13" name="IR13" class="st0" d="m730.15,529.55l1.5-.7,35.3-10.1,2.6.5,1.6,1.7,1.1.9,4.4,1.2,5.8,4.3,7.4,10.6,3.8,3.3,6.5-.2,1.5-.7.8-1.1.1-1.7-2.4-10.6-.2-4.2,1-14.3,2.2-8.1,3-7.3.7-6.6-.9-3.2,8,1.1,9.2,1.4,5.5.8,2.5.4,1.3.5.9.7,1.7,2.1.3,1.1-.3,2.3v1.1l.4,1.1,1.3,2.1.4,1.3.1,1.6.1.6.8,1.7.6,1.8.2,1.1v1.1l-.3,1.1-.9,1.8.2.7.2,3.7-.3.2-.1.4-.1.9.1.1.1.3-.8.9-3.9,4.7-6,7.2-5.3,6.5-3.9,4.6-5.1,6.1-2.6,3.2-3.9,4.7-7.3,8.7-3.6,4.2-2.7,3.2,3.8,4.5,2.5,2.9,3.1,3.7,3.5,4.3,3.7,4.4,3.9,4.6.9.8,1,.4.8.6.4,1.3-.1,1.1-.5,1.9v1l.4,1.1,1.5,1.7.6.9.2.6.1,1.4.3.6.5.6.4.1.4.1.5.2.5.8.3.9.3.8.8.3.5.4.1.5-.1.5-.5.4-.3.4-.2.3.2.3.3.3.6.3.6.4.4.6,2,4.5.2,1.1.1.9.3.8,1.3,1.5,1.4,3,1.4,1.7,4.8,4.4,2,2.5,3,2.8,1.5,1.7.8.5,2.8.8,2.3,1.3,1.4.4,3.1.3,1.5.3,4,1.8,6.2,1.3,1.3.6.5.7.4.7.5.7.8.4.8.2.5.4.3.5.3.9.7,1.2,3,3.2.9.6,7.7-1.5,1.1.6.2,1.9-.7,5.4-.8,6.1.9,3.7,1.2,5.1.3,3.2.4,4.3.3,2.7.4,4.9.3,2.7-.3,2.2-2.5,5.6.9,1.1.3.6-.1.9-.2.7-.3.6-.5.4h-.7l2,1.8.7.4h.4l.6-.4h.4l.3.1,1.1.6,1.5.3h1.3l2.8-.6,1.2-.2,2.4-.7,1.3-.1.8.1h.6l2.6-.9.4.1.6.2,1.2,1.1.6.3,1.1.5.5.2.5.6.6,1,1.6,3.5-.8-.3h-1l-.9.4-.5.9-.2.5-.5.7-.2.6-.1.6.3,5.9.4,1,.6.9.4.8-.2,1-.7.7-1.9.3-.8.4-.3.8-.4,7.7-.5,2.1-1.1,1h-.4l-.4-.2-.3-.3-.4-.1-.5-.1-1.4.3h-1.8l-1.9-.3-4.2-.1-3.7-.1-3.2-.1-.5.2-.4.4-.5.9-.3.3-.3.2-.4.1-1.5.4-.4-.1-.5-.2-.5-.1-.4.2-.4.4-.4.3-1,.4-7.8.8-.5.1-.4.3-.3.7-.3.2-.5.2-1-.1-.4.1-.4.2-.6.4-.4.2-.9.4-.5.2-.2.4-.1.5.1.3.2.3v.4l-.5.9-1.4,1.4-.4.7.3,1.2.4,1,.1.7-1,.6-1.8-.3-2.1-.7-1.8-.3-.8,1.3-.1,1.3-.5.5-1.9.4-1,.3-.9.4-1.6,1.1-5.7,1.6-1.2.9-.7,1.5-.3,1.6-.5,3.2-.4,2.8-.4,3.2-.6,4.4-.5,3.7-.3.9-.7.9-.8.1h-.9l-1,.3-1,1.3.2,2,.6,2-.2,1.8-.3.4-.7.7-.2.5-.2.8-.2,3-.3,4.5-.3,5.2-.3,4.4-1.5,4.3-.3-.7-.1-.9-.8-.6-.2-.3-.2-.2-.4.3-.2.3v.9l-.2.3.3.2.4.6.3.2-1-.1-.8-.3h-.7l-1.1.8,1.1.3.5.3.4.4-.3.5-.7,1-.2.5v.3l-.1.2-.3.4-.7.3-2.6.8.7.5-1.1,1.4-7.9-2.7-2.8-.6v-.8l-.7-1.3-6.5-2.4-7.8-1.3-6.5-1.5-4.4-.6-.8-.4.7-.7-1.1-1.6-.2-.7v-2.9l-.2-.5-1.7-1.7-.7-.4-.8-.1h-.9l-3.2,1-.8.5-.5.7-.7.9-.4.6v.3l.2.3.2,1.1.2.1.3.1.5.2h.4l.2.2.2.3.5.5-.5-.1v.2l1.4.7-.2.6-.5-.1-1.5-.6-2-.8-.9-.6-2,.1-1.4-1.1.4-.9.2-.2-.7-.3-.8-.1-1.7.1-1.3.2-.3.1-.4.5v.3l.1.3,1,.6-.3,1h-1.3l-1-.6-.5-.2-1.6-.2-.4-.3-.5-.7-.7-.4-1.7.1-2.4.4-2.6.1-1.7,1.3-2-.7-2-1.9-2.1-.6-5.4.4h-2.2l-3.5-.9-2.3-2.3-1.7-.9-2.7.5-5.5.9-1.3.2-.3-1.2,1.3-.6v-.8l.1-.8-.8-.4-.4-.5-1.7-2.9-.8-.8-.6-.8-.3-1.1-.8-.9-1.4-.6-1.1-1-.2-1.9-1.5-2.5-9-7.9-1.6-1.1-.7-.2-.2-1,.3-1.7.8-1.3.6-.3.9-2.3.3-1.9v-3.2l.5-1.4.7-.9-.1-1.7.9-1.1.7-2-.4-2-1.6-1.9-.9-3.1,1.2-2.4,1.5-1.8v-1.8l-1.5-1.4-.8-1.2,1.3-2.3,1.3-4-2.4-5-3.6-4.1-1-3.6.2-3.4-.2-2-1.2-4.5v-5.2l5.5-21.3.6-6.1-.3-18.4,5.4-7.2,1.4-4.8-1.6-2.7-3.9-2.9-1.7-2.8,2.7-1.4,5.3-1.8,11-6.4,2.1-1.7,1.4-1.5.1-2-.5-2.1-1.4-2.9-.1-4.4-.6-3.6.6-3.4,4-6.1,1.4-5.3.2-4.7-1.7-11.4-1.8-4.8-2.2-1.4-1.1-1.2.4-4.5,9.7-44.9h0Z"/>
    <path id="IR06" name="IR06" class="st0" d="m284.45,551.35l3-1.5,4.9-.9,2.7,1.4,7.2.3,5.5,2,1.8,1.3.8.8v2.8l1.3,3.9,2.4,2.4,2.8,5.8,2.7,1.1,10.4.7,6.5,2.1,3.1,3.5,2.6,5.9,3.3,5.2,3,3.2,3.8,1.4,4.2,3.9,21.1,39.8,1.1,4.8,6.9,19.6,1.2,1.9,2,.9,1.6.9,3.6,4.1,6.3,14.4,6.3,7.6,6,5.7,9.4,6.8-2,1.2-.7.2-2.2-.1-2.3-.6h-.8l-3,.3h-.5l-1,.4h-.2l-.3.3-.7,1.5-3.7-1.6-1-1.1v-1.1l.4-.6.8-.4,1-.1.9.1,1-.2.6-.5-.5-1.2-.7-.7-1.9-.7-.7-.6-.4-.6-.8-1.8-.3-.5-3.5-3.7-1.6-1.2-1.7-.7-8.4-1.9-1.8-.9-5.5-5.2-1.7-1.1-2-.8-2.2-.3-3.3.4-.7-.3-.9-.5-1.7.1-1.8.4-3,.6-1.8-.3-4.1-.9-.5-.1-.3-.4v-.5l-.2-.4-.2-.2-1.5-.2-2-.7-1-1-1.1-1.9-1.1-.7-.4,1.5-1,.1-.9-3.2-.9-1.3-.7-2-1.8-2.9-.8-.7-1-1.1-.2-1,1-2.9-.1-1.4-.9-1.6-1.7-1.5-.6-.7-1.6-2.6-1.6-1.6-.3-.6-2.9-7.1-.4-1.7v-6.8l-.6-2.3-1.1-2-1.2-1.4-1.5-1-2-.4-1.9-.2-.9-.2-.4-.6-.4-1-2.2-2.8-.4-1.1-.3-1.4.2-1.4,1-.6.9.4.9.7.8,1,.5.9.5-.4-.1-.4-.2-.5v-.6l.4-.3.9-.9.4-.6.1-1.1-.1-1.3-.5-.8-.8.3-.4-1.6-.3-.5-.6-.5h-.3l-.4.3-.4.1-.2-.3-.1-.9-.1-.4-.1-.3-1.1-.2-3.7.2-.9.2-1.2.7-1.3-.2-1.1-.9-.4-1.5-.1-1.3.1-.6.5-.7.3-.7.3-.9.4-.4.7.8.3-2.2.1-.4-.5-.2-.3-.3-.5-1,.3-1.4v-2.1l-.3-2.1-.3-1.5-.7-1.1-.9-1.3-.7-.3v1.6l-.3-.6-1.3-2-2.5-2.1-.4-.7-.3-.9-.8-1-1.5-1.6-2.8-1.1-.4-.6-.3-1-.7-1.1-1.3-1.4-1.2-1.8-2.2-4-1.1-1.6-.9-.8-1.9-1.2-1.9-1.9-.1-.2-.2-.7v-1l-.2-.6h.8l.1-.4-.3-.4-.6-.3.5-1.8-1.1-3.1.3-1.4-.6-.5-.8-1-.6-1.1-.3-.9-.2-.6-.7-.5-.4-.1h0Zm12,50.7l.9.4.5.3-.3.9.2,1-.3.8-.5.1-.5-.5-.4-1.1-.3-1.1-.4-.6.6-.4.5.2h0Z"/>
    <path id="IR23" name="IR23" class="st0" d="m699.45,775.45l-.6.3-.8,1.3-.3,1.7.2,1,.7.2,1.6,1.1,9,7.9,1.5,2.5.2,1.9,1.1,1,1.4.6.8.9.3,1.1.6.8.8.8,1.7,2.9.4.5.8.4-.1.8v.8l-1.3.6.3,1.2-2.7.4-2.7,1.3-1,.2-.4-.1-.3-.3-.3-.2-.4.1-.5.2-.4.1-1.1-.1-.9-.2-.8-.3-.6-.5-2.2-3.5-1.2-1.4-1.8-.8h-1.7l-.4-.2-.3-.5-.2-.5-.2-.5-.5-.1h-4.1l-8.5-1.6-3,.5-2.5-.2-.9-.4.4-.8h-1.4l-1.5.3-.7.4-1,.9-.8.2-.3-.2-.1-.2h-.3l-.5.5-.4.3-.5.2-.4-.1-.2-.4-.2.2-1.7,1.1-1.7.3-1.6-.3-1.5-.5-1.5-.2-1.3-.6-1-1.4-1.4-3-1.5-1.8-1.8-.4-1.9.5-1.9,1-1.6,1.3-1.1.6h-.7l.2-2.3.2-.6.1-.2v-.2l-.1-.4-.4-1.2-.8-.7-1-.2-1.1-.1-1.1.1-2.6.6-.6-.1-1-.5-.5-.1-.5.1-1,.2-.5.1-1.1-.1-3.2-1,.3-.4-6.3-.4-.7-.3-.3-.9-.3-2.5-1.1-2.7-.6-2.1-.4-1-.5-.4-.1-.2-1-1.3h-.2l-.6.1-.2-.1-.1-.2-.1-.6-.7-1.9-.1-.9-.5-1-.1-.6.3-1.1,1.5-1.6.5-1.1-.7-1.6-3.1-3.5.3-1.4-.4-.3-.3-2.4-.3-1.2-.5-.9-.9-.9-.2-.4-.2-.4-.1-1.2-.1-.5.8-6.6-.1-2.5-3.1-12.2-.6-.9-1.6-1.4-.6-.9.1-.8-1.5-1-.5-.5.7.1.5-.3.5-.3.6-.2-.4-.4-.1-.5.2-.5.3-.4-1.5.6-.4.1-.5-.1-.3-.3-.1-.2-.3-.1-.2-.2-.3-.4-.3-.2-.9.5-.3-.2-.1-.4v-.6l-.6.2-.3-.3v-.4l.4-.2.3-.2.8-.9.4-.3v-.4l-1.4-.2-1.1-.7-.8-1.2-.3-1.1-.5.5-.6.2h-1.3l-.7-.2-.4-.5-.4-.5-.4-.3h-4.9l-1.1-.4-.3.4-1.1-.6-1.5-.3-2.9-.1-1.4-.3-2.5-1-1.4-.2-2.9.1-1.5.4-1.1.8-1,.5-3.1.1-1.2.2-.4.3-.8.8-.1.2-.1.6-.3.2-.4.1-.4.2-.8.7-3.1,1.9-1.2,1v.2l-.2.2-.9.7-.5.2-2.1.2-2,.5-.5.1-1.5-.1-.6.1-.7.5-.4.1h-1.7l-1.5-.3h-.5l-.9.4-1.6,1.5-.6.3-.5.4-2.5,2.8.6-.2.3-.2.4-.3.2,1.3-.3,1.6-.6,1.5-.6,1-1.6,1.4-1.7.9-2,.4-2.1-.1-3.8-1.3-2.2-.3-1.8.8-.5,1-.3,1-.4.7-1.2.3-.9.1-2.1.6-.7.3-3.1,2.8-.5.3-4.5,3.7-5.1,3-.3.3-.3.3-.4.3-.5.1-.6-.1-.8-.5-.5-.1-4.1.4-2-.3-.8-1.2-.6-1.6-1.4-1.3-2.1-.4-4.3.2-1.7-.8-.8-1.4-.7-1.7-.9-1.6-1.4-1.1-1-.2-1,.1-.9.3-3.6.2-.9-.1-3.3-.9-.8-.1-.5-.2-.9-.7-.4-.2h-.5l-1,.2-3.1,1.4-2.1.3-1.9.6h-1.1l-2.1-.7-1.1-.1-1.1.6-.6-.2-2.5-2.1-3.5-2.1-4.6-3.5-.6-.8-.3-1-.1-2.5-.4-1.1-.8-1-1.5-.9-16-5.5-1.1-.1-1-.3-.6-.7-.5-.8-.6-.7-2.8-.7-.4-.6-.4-1.1-1-.6-2.2-.7-3.8-3.4-1.6-1.1-2.5-1.1.7-1.5.3-.3h.2l1-.4h.5l3-.3h.8l2.3.6,2.2.1.7-.2,2-1.2,1.3,2.5,3.4,3.3,10.5.9,1.8.7,4,3.3.8.4.8.1,3.4-.9h1.2l14.4,2.6,4.9-2.6,1.3-2.1-.5-1.6v-.6l1-2.9.7-4.2,2.1-2.5,4.8-1.7,12.6-1.2,2.9.4,2.2.8,2.3-1,4.3-1,12.6,1.8,5.9-1.8,2.7-2.6,1.5-4.7,1.9-3,6.4-3.4,4.3-1.1,2.7.1,1.4-.6,1.1-.8.8-1.3.3-3-2.2-3.7-4-3.2-.3-1.8.3-2.2,2.4-8.7.5-6-1.2-3.4-14.2-13.7-.2-2.6,1.5-1.1v-1.5l-2.7-8.2,4,.3,8.5,2.4,4.2,3.3,2,2.7,2.1,1.5,2.1,1,2.4-.6,9.5-7.2,5.5-2.6,1.4-.1,1.3,1.9.9,20.5-1.1,3.9.9,5.3,4.3,5.4,4,3.7,4.8,3,5.6.8,3-.5,5.6-2.8,5.1-4.8,1.4-1.8,2.2-1.7,2.6.1,4.9,2.4.3.9-.4,5.4,1.7,8.3.7,1.2,1,.8,1.4.2,2.5,1.3,1.8,2.4,1.1,2.1,2.2,2.4,2.1,3.2.3,2.7-1.3,1.1-.8,1.6,1.1,1.6,1.2.6,1.3,2.6,1.4,4.2,1.5,19.8,1,3.1,14.5,7.7,3.2,2.4,1.4.4,2.2-2.1,1.2-1.5,1.9-1.3h3.1l3.2,2,3.6,2.9,2.7,3.2,1.4,3-.4,1-3-1.8-1-.1v1.1l1.1,3.4.1,1.3-.3.9-.9,1-.6,1.7-1.1,10.2.3,1.6v1.5l-.6,2.9-1,1.2.1,1.1,6.3-.5,3.8.7,2.6-.2,1.6-.8,1.7.4,1.8.8,2.9.5.9.5-.1.6-.4,1,.1,1,.5,1.1.1,1.7.8,1.4,1.9.4,2.4.1,2-.2,1.4-1.5,1.4-.4,1.8.8h1.3l.7.5,1.9,2.9h0Zm-204.2-15.7l.3.2.2.2.3.3.1.3-.9,2-.3.1-.5-.2-.6-.3-.3-.3v-.7l-.1-.5v-.5l.1-.6.3-.4.4-.2.5.1.5.5h0Zm-23.1-9.4l-3.5-.2h-.3l-1.6-.7-.9-1.6.5-.7.7-.6.8-.2h.9l.8.3,1.8.2.6.2.1.3.1.1-.1.5.1.4.3.2.2.2.1.1.1.3v.3l-.1.3-.1.3-.5.3h0Zm-33.9-16.4l-.8.5h-.9l-2.7-.5-.9-.3-.1-.1-.6-.4-1.5-1.2-.4-.5.2-.3h.3l.4-.2h.5l3.9,1.2,3.6.3,1.1.4.6.6.4.3-.7.2-1.8-.1-.6.1Zm141.5-1.8l.2-1.4.7-1,1.2-.5,1.8-.2.2,1.6-1.4,1.3-1.8.5-.9-.3h0Zm-5.1-8.9l.9.2,1.2.5.7.6.3.2.4,1-.8.4-.7.5-2.9.7-1.1,1-1,2.3-.6.9-1.9,2-.3.7-.4.5-1.8.9-.4.5-.4.2-2.4,2.3-1.3.8-1.1-.5-1.1-1-1.2-1-3.1,1.6-.9.8-.9.5h-1l-2.1-.3-1,.2-1,.4-2.5,1.9-2.6,1.1-1.6,1.2-.9.4-2.9.3-2,.6-.9.6-.4.1h-.4l-.6-.2h-.4l-.2.4-.3.4-.5.3-.6.1-.4.1-.2-.1-.2-.1-.2-.7-.2-1.3.3-.9.1-.6-.3-.3-.4-1.6.5-.5,2.2.8.5-.3.3.1h.1l2.5-1.4,6.3-2,.9-.1.6-.3h.2l2.2-1.4.9-.7,3.1-1.2.5-.1,1,.1h.4l.4-.2.5-.4.4-.1-.1-.4-.2-.4.7-.8.2-1-.3-2.3-.3-.9-.8-.8-.8-.6-.3-.4,1.2-.7,6.5,2.5,1.8-.5,5-3.2,6.2-1.4h1.9,0Zm12.2-5.5l.5.4.6.2.4.3v.1l.2.7-.2.7-.4.5-.4.1-.3.2-.7.1-1.5-.6.1-1.3.9-1.2.8-.2h0Zm-90.7,62.1l.2.5.1.9-.4.4-.7-.2-.7-.3-.2-.6.6-.4,1.1-.3h0Zm63.5-39.5l.3.5.1,1.3-.6,1.1-1,.6-.8-.5.1-1.2.7-1.2.7-.6h.5Zm-106.2-.5l.5.2.4.8-.6.6-.8-.1-.8-.4-.5-.7.4-.5.9-.1.5.2Zm66.4,42.1v.5l.2.6-.3.4h-.4l-.3.2-.5-.5-.2.2.1-.3-.2-.3-.2-.5.7-.4.8-.2.3.3h0Z"/>
    <path id="IR21" name="IR21" class="st0" d="m296.35,186.25l2.5-1.6,2.9-5.2,1-4.9,1.9-1.8,2.5-1.3,1.6-2.3.4-1.5v-.2l2.3,1.5,1,.3.6.3,1.4,1.5.7.6,7.4,4,6.8,4.9,4,1.8,13.1,2.6,8.4,2.4,8.7,1.6,8.4,2.4,8.7-1.1,7.8-2.9,8.1-2,8.3-1.6,8.1-1.6,8-2.4,7.8-2.4,15.7-3.6,2.1-.3,18.5-1.1,3.4-.8,2.3-1.9-.1,2.2-2.7.9-3.3.5-2.2.6-.6.3-.7-.1-1.2-.4-.7.1-1.3.6-.8.1-2.7-.4h-2.4l.3.7.7.2,1.5-.1-.9.4h-.4l1.2,1.5,1.9.9h.2l.1.8.5,1.4,1.6,2.9,10.4,6.3,5,5.1,1.9,3-4.7,1.4-3.9,2.3-3.6,3.5-1.6,3.3-1.1,3.5-.7,4.7-1.9,2.2-4.8,4.3-1.1,1.6-.6,1.4-1.1,1.6-2,1.8-3.4,1.8-3.6,1.2-2.3.3-1.6-.8-2.4.8-3,1.7-2.2.7-4.8.5-.7.3-4.2-2.9-2.1-.5-1.5.9-2.5.3-3.6-.7-5.3-2.9-4.3-.8-3.3-1.4-3.1-.4-4.4,3.4-6.1,7.4-3.2,1.3-3.7-.2-2.3-.8-1.5-.9-1.6-1.9-2.8-5.2-4.8-5.2-6.4-2.5-7.2-.6-5.1-3-3.1-3.6-7.7-1.7-2-.9-1.7-1.6-.9-1.3-3-1.2-7.8-1.5v-1.2l-.6-1.6-7.6-5.8-2.6-1.4-12.6-10.6h0Z"/>
    <path id="IR12" name="IR12" class="st0" d="m558.35,145.85l7.1,9.5,3.4,2.4,1.8-.3,2.3.9-.5,1.4-2.7.8-1.2,1-.3.9.3.4.3.7.2,1.5-.2,4-.9,3.5-.2,1.2.9,1.9,5.6,6.3,5.3,4.6,2.7.9,4.5.7,2.3.9,7.2-1.2.9-.3,1.5.1,1.9,1.1,1.2,4.7-1.3,5.4-1.9,3.7-.7,6.3.9,11,1.5,7,1.3,3.3,11.2,9.1,3.1,3.6-.8,4-8.2,14.1-2,4.7-1.4,1.1-9.9,3.8-5.4,3.2-6.1,5.5-7.5,9.4-17,28.6-5.1,2.6-12.1-.2-4.3.8-.9.4v.1l-.4-.6-1.2-1-2.5-.8-112.4,3.4-2.5-.4-20-6.6-3.2-.5-12.9.8-4.6-.8-9.2-4.9,1.6-2.3,2.1-4.9,1.3-5,.1-4.6-.7-2.3.2-2.5,1.5-4.6,2.4-3.8.6-3.5-2.2-3.9-5.3-7-.3-2.5.3-2.6.8-3.5.7-5.3.8-.9.8.4.6.6,1,.4,2.8.1,2.6,2.3,8.6,5.2,3.5,1.2,3.6.1,10.6,3.1,3.8.1,5.3-1.7,4.7-2.5,7.5-6.9,1.5-5.2-.6-5.8-1.5-6.5.7-.3,4.8-.5,2.2-.7,3-1.7,2.4-.8,1.6.8,2.3-.3,3.6-1.2,3.4-1.8,2-1.8,1.1-1.6.6-1.4,1.1-1.6,4.8-4.3,1.9-2.2.7-4.7,1.1-3.5,1.6-3.3,3.6-3.5,3.9-2.3,4.7-1.4,9.3-.2,3.6.6,3.3-.8,6.7-3.1,2.9-3.2,8-6.2,8.2-4.8,4-.4,16.8,2.3,2.4-1.1,1.6-4.1.9-6.5,3.9-8.6,8.8-13.6,1.9-1.6h0Z"/>
    <path id="IR11" name="IR11" class="st0" d="m156.45,195.75l-6.5-14.6-.3-1.9v-2.9l.9-1.8,7.1-7.3,2-3.3,1.4-1,3.1-1.5,2.6-2.8,1.6-.9,1.7-.7,14.8-1.8,4.4.7,3.1-.5,11.3,1.2,3.5-1.4,1.6-1.3.6-.3,1.3-.4,2,.7,3.5,3.7,1.4-.3.7-1v-1l.6-1,.9-.4,1.3.8,1.7.2,1.9-1.3,1.6-.5,3.2,1.7,7.1,4.5,5.2,5.6,2,3.2,2.8,9.7-3.8,1.3-5.2,3.4-1.9,4.5,1,3.7,2.5,3.1,1.5,3.9,1.6,2.3,2.3,1.2,1.5.1.9.5.9,1,1.2.7.9,1.6.7,2.8,1.5,2.5,1.1,2.4.7,6.2-1,1.6-8.6,2.3-4.8,2.7-2.9,3.3-.2,2.3.1.6-4.3-2-3.1-.2-4.3,1.2-2.6,1.9-1.7.4-2,.1-1.5.3-1,.7.1,1.8,6,5.4,3.5,5.1v1l-1.7,2.4-3.5,1.2-4-.9-4.1-2.3-10.1-.3-2.2-1.3-1.5-2.9-.5-1.3-.9-1.6-.9-.8-12.9-7.9-.7-1.5.8-2.1,1.9-2,1-4.2v-6l-.9-3.3-.8-.1h-.2l-.1-.5.2-.3.2-.4.1-.4-.3-1.4.1-.6.4-.4-.4-.7-.5-1.1-.5-1.3-.2-1.1-.3-.7-1.5-1.6-.1-.3-23.8-4.7-1.3-1.4h0Z"/>
    <path id="IR28" name="IR28" class="st0" d="m246.55,177.85l4.4,2.1.1,1,.6,1.9,2.7,3.4,2.9,2.7,6.4,1.9,2.4-.1,1.5.3,1,.7,4.3.8,2.4-.4,8.8-4.8,1-.3,1-.6,3.9-.8,6.4.6,12.6,10.6,2.6,1.4,7.6,5.8.6,1.6v1.2l-11.2-1.2-5.3.4-1.4,2.1,2.4,3.3,1.8,1.5,3.3,1,2.2,1.9-1.5,5-2.3,4.7-.5,2.1-1.6,1.6-9.6,4.7-2.6,2.5-.6,2.2.4,1.8,1.2,2.7,1.1,1.7-1.5-.2-2.8.1-8.4,3.7-2.2.1-2.6.8-2.4,1.2-8.3,2.5-2,1.5-1.4,3.3-8.2.2-1.2-.8-6.7-1.7-1.3.3-6-1-3.3-2.5,1.5-2.1-1.8-2.3-3.9-2.3h-5.2l-2.2.9-3.5-5.1-6-5.4-.1-1.8,1-.7,1.5-.3,2-.1,1.7-.4,2.6-1.9,4.3-1.2,3.1.2,4.3,2-.1-.6.2-2.3,2.9-3.3,4.8-2.7,8.6-2.3,1-1.6-.7-6.2-1.1-2.4-1.5-2.5-.7-2.8-.9-1.6-1.2-.7-.9-1-.9-.5-1.5-.1-2.3-1.2-1.6-2.3-1.5-3.9-2.5-3.1-1-3.7,1.9-4.5,5.2-3.4,3.8-1.3h0Z"/>
    <path id="IR22" name="IR22" class="st0" d="m255.75,258.05l8.2-.2,1.4-3.3,2-1.5,8.3-2.5,2.4-1.2,2.6-.8,2.2-.1,8.4-3.7,2.8-.1,1.5.2,2,.4,4.7.3,4.7,1.4,2.7,2.5,1.1.6.5-.8v-1l-1.8-2.5.6-1.6,2.7.1,1.8,2.1v3.2l.3,2,1.3-.3,1.3-2.7,2.2-.2,2.2,2.7,1.2,2.4v4l-4,13.2-1.4,1.9-1.5,4.5-.9,8.8-.5,2.2-.9.6-4.9,1.6-5.8.9-2.8,1.9-4.1,1.2-4.3-.6-2.6,2.2-.1,3.7,1,1.4-.5,1.1-4.4,2.5-.5,3,2.6,2.9,2.1,1.9,1.7.8,1.9-.2,1.3.9,1.4,1.6.7,1.7-.2,2.3,1.2,2.9,2.2,2.7,3.1,2.6,12.1,1.1,4.9,2.7,10.8,2.9-.5,3.4-4.5,10.9-1.3,2.3h-2.7l-2.9.9-2.7,2.3-2.9,1.8-19.6,5.2-7.5,4.4-3.9,3.2-.4-.4-3-1.6-.4-1.6.1-1.7-1-1.1-1.5-1.1-.8-1.4-1-.6-1.7,1.2-.9,1.8-.3,1.5-1.1.7-1.5-1.1-1.6-1.7-3.5-1.8-1.6-1.3-.4-1.4.5-1.7.7-1.6v-1.5l-1.3-2.2-2.1-2.5-2.6-.8-2.3,1.3-2.6.9-2.1,1.2-1.6,5-.9.9-3.8,2.4-1.3-.5-5.3-.4-3.1-1.2-2.4-1.4-.6-1.2.2-1.3.4-1.3,1.9-4.3-.2-1.3-.5-1.6.3-1.8.7-1.2,5-4.4.8-1.2.1-1.3-.8-3.7-.3-3.1-.7-3.1-3.4-6.6-.4-6-.8-3.6-2.3-1-.7-1.6,1.6-.6,4.9.5,2.1,1,1.1-.2-.8-4.5.2-4,1.2-2,.6-2-.6-3.4,1.2-1.8,8.6-.4,4.1.7,1.1,1.6-1,2.2.7,2.6,1.9,2.2,1.5,1.4,2.1.2,1.1-2.3-1-6.2-1.2-2.9-2.3-2.7-2.4-1.1-5-1.4-2.1-1.1-1.1-1.1-.1-.8.8-.9,1.4-.2,2.7-.8,2.3-2.7-.6-2.6-2.1-3.5-.9-3.9,1.5-1.9,1.3-.1.1,1.1-.1,1.4,1,1.4,1.6.3,1.6-1.8.1-2.2-1.1-1.5-.4-2,.1-1.4h0Z"/>
    <path id="IR04" name="IR04" class="st0" d="m269.65,424.55l1.2-4.2,1-1.6-1.9-2.6-4.7-1.8-4.1.3-2.6-1.4-2.2-5.6-.1-.6.3-1.3.6-1.2,1.1-.7,3.8-1.2,2.1-1.6.9-6.7,2.7-3.2,7-2,1.1-.6.1-1.1.3-1.3,4.7-9.6-.1-2.4.2-3.1,1.1-2.3,3.9-3.2,7.5-4.4,19.6-5.2,2.9-1.8,2.7-2.3,2.9-.9h2.7l1.3-2.3,4.5-10.9.5-3.4-1.3-.7-1-2.4,1.4-11.2.6-1.7,1.8-1.8,4.5-1.9,10.1-1.2,3.7.2,15.8-4.1,9.2,4.9,4.6.8,12.9-.8,3.2.5,20,6.6,2.5.4,112.4-3.4,2.5.8,1.2,1,.4.6.6,38.4-1.3,4-4,7-2.7,1.9-3.7.4-4.7,2.5-2.5,3.2-2.1,9.4-1.6,4.2-1.8,3.4-2.6,3.2-4.9,2.8-49.9,17.2-14.9-3.4-3.4.1-4.6,1.8-2.8,1.8-2.1,1.7-3,1.8-3.4,1-1.9,1.2-.4,1.9,1.4,17.1-.4,3.6-2,7.8-.9,6.7-.5,1.4.1,3.8,2.1,8.2h-.1l-16.1,4.6h-3.5l-10.5-2.3-2.1-2-.5-5.1-.7-1.5-.8-.1-6.4,3.5-.9,1.3-1.4.6-6.3,4.3-3.6.5-4.5-1.1-.2,1.6,1.1,2.6,1.4,1.5,1.9.7,2.1.4,2.7,2.1,1.3,3.7-1.1,3.7-1,5.7-3.9,9.9-.4,4.8.5,3.3v1.7l-1.3.4-3.6.6-1-.9-6.6-4.8-5-5.4-2.6-6.7-.4-3.7.5-1.9.1-4.3-4.3-14.3-1-6.3.3-2.9,1.6-1.2,2-.8-.2-1.7-1.4-1.8-.9-1.7.2-1.7,1.9-1.4,1.5-2.9-.9-5.8-2.5-4.4-5.4-4.2-2.5-2.5-6-4.6-.5-4.4.3-4.1-1-1.6-.4-1.6-.7-.8-1.3-.3-.4-1.4-.5-2.5-1.8-1.6-2.1.3-1,1.1-2,.7-6.2.2-1.8.3-5.2,3.5-2.2.4-1.4-.5-2.4.5-3-.3-2.9-2.4-2.9-1.6-2.1.4-1.4.8-1.7.3-3.2-.4-9.3,5h0Z"/>
    <path id="IR08" name="IR08" class="st0" d="m294.15,481.05l1.7-3.2,2.6-3.2.1-2.6-1.4-3.1-4-4.3-.9-1.6-2.3-2.1-1.5-2.3-1.4-3.4-1.3-4.6-.6-1.5-.8-.8-2.2-.7-.7-.8-1.2-.8-1.1-1.5-1.5-3.8-7.1-11.2-.7-3.4-.2-1.6,9.3-5,3.2.4,1.7-.3,1.4-.8,2.1-.4,2.9,1.6,2.9,2.4,3,.3,2.4-.5,1.4.5,2.2-.4,5.2-3.5,1.8-.3,6.2-.2,2-.7,1-1.1,2.1-.3,1.8,1.6.5,2.5.4,1.4,1.3.3.7.8.4,1.6,1,1.6-.3,4.1.5,4.4,6,4.6,2.5,2.5,5.4,4.2,2.5,4.4.9,5.8-1.5,2.9-1.9,1.4-.2,1.7.9,1.7,1.4,1.8.2,1.7-2,.8-1.6,1.2-.3,2.9,1,6.3,4.3,14.3-.1,4.3-.5,1.9-1.6-.1-3,.5-2.4,2.1-2.5,1.3-5.4-.7h-1.6l-17.5-15.6-1.5-.1-2.5.1-8.2-3.3-3.4-2.1h0Z"/>
    <path id="IR18" name="IR18" class="st0" d="m302.25,550.65l-.8-8.5-.8-3.7-1.5-1.7-.4-2.8,2.7-6.4-.8-2.9-2.6-1.9-4.5-2.4-3.7-3.7-1.9-2.4-8,1-.3-1.3.4-1.8.2-1.6.3-.9-.2-2.2-2.1-7.8v-3.2l.7-1.8,1.2-1.6,1.6-1.2,3.7-1.5,5.6-5.1,3.1-4.2,3.4,2.1,8.2,3.3,2.5-.1,1.5.1,17.5,15.6h1.6l5.4.7,2.5-1.3,2.4-2.1,3-.5,1.6.1.4,3.7,2.6,6.7,5,5.4,6.6,4.8,1,.9,1.4,6.8v2.6l-.3.6-1.2,1.2-2.3,1.4-2.6.7-5-1.3-1.7-1.1-1.1-1.3-1.2-.3-5.4-2.6-3.8-1-.7.8.8,4.6,1.4,4.2.1,1.3-.6,1.1.3,1.2,1.2,2-.1,2.8-1,2.1-12.5,7.3-2,.3-7.9-.4-4.8,1.1v.2l-.8-.8-1.8-1.3-5.5-2h0Z"/>
    <path id="IR14" name="IR14" class="st0" d="m421.95,703.15l-9.4-6.8-6-5.7-6.3-7.6-6.3-14.4-3.6-4.1-1.6-.9-2-.9-1.2-1.9-6.9-19.6-1.1-4.8-21.1-39.8-4.2-3.9-3.8-1.4-3-3.2-3.3-5.2-2.6-5.9-3.1-3.5-6.5-2.1-10.4-.7-2.7-1.1-2.8-5.8-2.4-2.4-1.3-3.9v-3l4.8-1.1,7.9.4,2-.3,12.5-7.3,1-2.1.1-2.8-1.2-2-.3-1.2.6-1.1-.1-1.3-1.4-4.2-.8-4.6.7-.8,3.8,1,5.4,2.6,1.2.3,1.1,1.3,1.7,1.1,5,1.3,2.6-.7,2.3-1.4,1.2-1.2.3-.6v-2.6l-1.4-6.8,3.6-.6,1.3-.4v-1.7l-.5-3.3.4-4.8,3.9-9.9,1-5.7,1.1-3.7-1.3-3.7-2.7-2.1-2.1-.4-1.9-.7-1.4-1.5-1.1-2.6.2-1.6,4.5,1.1,3.6-.5,6.3-4.3,1.4-.6.9-1.3,6.4-3.5.8.1.7,1.5.5,5.1,2.1,2,10.5,2.3h3.5l16.1-4.6h.1l12,4.6,7.1,6.5,6,7.4,11,27.8,7.9,14,7.5,9.3,2,3.6,1.7,12,1.3,3.2,7.4,5.5,9.5,4.9v1.1l1.3,4.2,3.8,8,.6,2.1,1,1.8,1.1,1.1,2.1,1.4,10.8,1,2.7,1.1,9.6,23.7,2.7,8.2v1.5l-1.5,1.1.2,2.6,14.2,13.7,1.2,3.4-.5,6-2.4,8.7-.3,2.2.3,1.8,4,3.2,2.2,3.7-.3,3-.8,1.3-1.1.8-1.4.6-2.7-.1-4.3,1.1-6.4,3.4-1.9,3-1.5,4.7-2.7,2.6-5.9,1.8-12.6-1.8-4.3,1-2.3,1-2.2-.8-2.9-.4-12.6,1.2-4.8,1.7-2.1,2.5-.7,4.2-1,2.9v.6l.5,1.6-1.3,2.1-4.9,2.6-14.4-2.6h-1.2l-3.4.9-.8-.1-.8-.4-4-3.3-1.8-.7-10.5-.9-3.4-3.3-1.3-2.5h0Z"/>
    <path id="IR15" name="IR15" class="st0" d="m651.05,472.85l53.5,24.2,6.8,5.1,18.8,27.4-9.7,44.9-.4,4.5,1.1,1.2,2.2,1.4,1.8,4.8,1.7,11.4-.2,4.7-1.4,5.3-4,6.1-.6,3.4.6,3.6.1,4.4,1.4,2.9.5,2.1-.1,2-1.4,1.5-2.1,1.7-11,6.4-5.3,1.8-2.7,1.4,1.7,2.8,3.9,2.9,1.6,2.7-1.4,4.8-5.4,7.2.3,18.4-.6,6.1-5.5,21.3v5.2l1.2,4.5.2,2-.2,3.4,1,3.6,3.6,4.1,2.4,5-1.3,4-1.3,2.3.8,1.2,1.5,1.4v1.8l-1.5,1.8-1.2,2.4.9,3.1,1.6,1.9.4,2-.7,2-.9,1.1.1,1.7-.7.9-.5,1.4v3.2l-.3,1.9-.9,2.3-1.9-2.9-.7-.5h-1.3l-1.8-.8-1.4.4-1.4,1.5-2,.2-2.4-.1-1.9-.4-.8-1.4-.1-1.7-.5-1.1-.1-1,.4-1,.1-.6-.9-.5-2.9-.5-1.8-.8-1.7-.4-1.6.8-2.6.2-3.8-.7-6.3.5-.1-1.1,1-1.2.6-2.9v-1.5l-.3-1.6,1.1-10.2.6-1.7.9-1,.3-.9-.1-1.3-1.1-3.4v-1.1l1,.1,3,1.8.4-1-1.4-3-2.7-3.2-3.6-2.9-3.2-2h-3.1l-1.9,1.3-1.2,1.5-2.2,2.1-1.4-.4-3.2-2.4-14.5-7.7-1-3.1-1.5-19.8-1.4-4.2-1.3-2.6-1.2-.6-1.1-1.6.8-1.6,1.3-1.1-.3-2.7-2.1-3.2-2.2-2.4-1.1-2.1-1.8-2.4-2.5-1.3-1.4-.2-1-.8-.7-1.2-1.7-8.3.4-5.4-.3-.9-4.9-2.4-2.6-.1-2.2,1.7-1.4,1.8-5.1,4.8-5.6,2.8-3,.5-5.6-.8-4.8-3-4-3.7-4.3-5.4-.9-5.3,1.1-3.9-.9-20.5-1.3-1.9-1.4.1-5.5,2.6-9.5,7.2-2.4.6-2.1-1-2.1-1.5-2-2.7-4.2-3.3-8.5-2.4-4-.3-9.6-23.7-2.7-1.1-10.8-1-2.1-1.4-1.1-1.1-1-1.8-.6-2.1-3.8-8-1.3-4.2v-1.1l2.1-.9.5-.4,4.7-.6,1.5-1.1v-1.5l-.7-2.2-.5-3.1.6-17.6-1.5-1.1-1.5-1.8-1.2-5.5-2.7-7.3-2.7-5-.1-2.7,1.1-4,2.1-4.2,4.2-4.6,26.4-4.7,6.1.2,3.8.8,8.9-1.2,8-3.5.7-3.8.6-17.4,2.1-4.5,25-13.2,3.3-3.5,9.8-5.6,2.2-2.3,1-1.6,6,1.1,50.6,21.8h0Z"/>
    <path id="IR24" name="IR24" class="st0" d="m180.85,286.05l1.5-.8,2.8-.8,1.8-.9.5-1.6.9-.3,1.5,3.8,1,.5,1.6-1.4,1.6-2.6,1-4.3-1.3-5.3-2.7-2.7-2-1.2-2.3-2.8-5-11.4-3.3-4.9.7-1.4,2.5-2.8,1.1-.1,2.2,4.6,1.4.4,1.6-.7,1.3-1.3,3.4-1.1v-1.5l-.6-1.2-1.3-1.8-.9-2.4,1.7-.4,7,3.8,1.5,2.9,2.2,1.3,10.1.3,4.1,2.3,4,.9,3.5-1.2,1.7-2.4v-1l2.2-.9h5.2l3.9,2.3,1.8,2.3-1.5,2.1,3.3,2.5,6,1,1.3-.3,6.7,1.7,1.2.8-.1,1.4.4,2,1.1,1.5-.1,2.2-1.6,1.8-1.6-.3-1-1.4.1-1.4-.1-1.1-1.3.1-1.5,1.9.9,3.9,2.1,3.5.6,2.6-2.3,2.7-2.7.8-1.4.2-.8.9.1.8,1.1,1.1,2.1,1.1,5,1.4,2.4,1.1,2.3,2.7,1.2,2.9,1,6.2-1.1,2.3-2.1-.2-1.5-1.4-1.9-2.2-.7-2.6,1-2.2-1.1-1.6-4.1-.7-8.6.4-1.2,1.8.6,3.4-.6,2-1.2,2-.2,4,.8,4.5-1.1.2-2.1-1-4.9-.5-1.6.6.7,1.6,2.3,1,.8,3.6.4,6,3.4,6.6.7,3.1.3,3.1.8,3.7-.1,1.3-.8,1.2-5,4.4-12.8-5.5-3.1.3-2.5-.1-1.2.3-2.5,2.6-1.4.3-1.7-.6-10.5-1.3-20.2-13.3-1-1.4-2-1.3-1.2-.6.8-1.6,1.8-2.6,4.6-.3,5.3,1.1,1.5-1.2-.2-2.6.6-3.8-.5-2.3-.9-1.4-1.1.2-2.2,1-4,4.2-1.2-1.9-.7-2.3-1.3-.7-1.5-.3-3.5-1.9-2.4-1.9-.4-2.3.7-.9,1.5-.6,4.7-.5,2.2-3.3,1.8-4.2,1.6-1.8.3-1.6-.1-.9h0Z"/>
    <path id="IR20" name="IR20" class="st0" d="m158.95,338.25l.8-.6.7-1.1-.2-.4v-.6l.1-1.1-.1-.6-.2-.5-.3-.3-.3-.4-.1-.6.3-.8,2.7-1.3,3.3-.2,2.3-1.2.3-3.2-.4-3,.1-1.3.9-.6,1.4-.4,3.2.4,1.2.6,2,1.3,1,1.4,20.2,13.3,10.5,1.3,1.7.6,1.4-.3,2.5-2.6,1.2-.3,2.5.1,3.1-.3,12.8,5.5-.7,1.2-.3,1.8.5,1.6.2,1.3-1.9,4.3-.4,1.3-.2,1.3.6,1.2,2.4,1.4,3.1,1.2,5.3.4,1.3.5,3.8-2.4.9-.9,1.6-5,2.1-1.2,2.6-.9,2.3-1.3,2.6.8,2.1,2.5,1.3,2.2v1.5l-.7,1.6-.5,1.7.4,1.4,1.6,1.3,3.5,1.8,1.6,1.7,1.5,1.1,1.1-.7.3-1.5.9-1.8,1.7-1.2,1,.6.8,1.4,1.5,1.1,1,1.1-.1,1.7.4,1.6,3,1.6.4.4-1.1,2.3-.2,3.1.1,2.4-4.7,9.6-.3,1.3-.1,1.1-1.1.6-7,2-2.7,3.2-.9,6.7-2.1,1.6-3.8,1.2-1.1.7-.6,1.2-.3,1.3.1.6-3.5.7-6.6-.6-11-7.6-10.4-1.1-3-.9-2.4-2.3-4.9-1.5-5,.4-3.3,1-11.6.8-2.5,1.9-6.5,17-2.5,3.8-.6-.6-.9-1.3-7.6-16-5.6-7.3-1.5-1.7-.7-.4-.9-.3-.6-.6-.9-1.8-1.2-1.3-.5-.3h-.7l-.6-.2-.2-.7-.5-.6-5.8-2.9-2-.5-1.2-.7-.9-.9v-.8l-.8-.3-2.4-1.8-.2-.3-.2-.2-.4-.1-.3.1-.3.2-.2.1-.4-.1-.1-.3-.1-.2-.1-.2-1.7-.6-.9-.4-.6-.5-.6-.8-.2-.4.6-1,.1-.6-.2-.5-.5-.2-2.6-1.5-1-.4-1.2-1.6-1.5-.8-1-1.8-.8-.5v-.4l.7-2.2.1-.8.8-.4.9-.1,1-2.5,2.9-2.8,16.5-4.7.9-1.3,2.7-1.8,1.1-1.2.6-1.2.3-1.8-.5-2.8-1-2.5-.7-.9h0Z"/>
    <path id="IR25" name="IR25" class="st0" d="m574.55,288.65l19.2-5,18.7-8.9,11.9-3.1,5.2,1.4,13.8,10.6,1.6,3.6-.7,3.7-4.5,4.4-18.7,13.3-3.2,5.8-5.9,17.8-.4,9.7,2.9,16.3,2.2,3.5,9.4,1.1,12-2.8,2,2.6,1.9,3.6,3.5,23.8,3.1,7,4,2.3,1.1.9,3,1.4,4,2.5,3.9,5.9,1.2.9.2,4.3-.4,1.7-1.2,2.1-.8,2,.3,1.3.7,1.2,1.4,1.6.1,1.7,1.4,3.1,1.9,3.2-.1,3-1.1,3.1-.4,2.7-.8,2.6-6.2,8.5-1.8,4.8-4.8,7.5-2.5,6.4-.6,1.1-50.6-21.8-6-1.1-1,1.6-2.2,2.3-9.8,5.6-3.3,3.5-25,13.2-2.1,4.5-.6,17.4-.7,3.8-8,3.5-8.9,1.2-3.8-.8-6.1-.2-26.4,4.7-4.2,4.6-2.1,4.2-1.1,4,.1,2.7,2.7,5,2.7,7.3,1.2,5.5,1.5,1.8,1.5,1.1-.6,17.6.5,3.1.7,2.2v1.5l-1.5,1.1-4.7.6-.5.4-2.1.9-9.5-4.9-7.4-5.5-1.3-3.2-1.7-12-2-3.6-7.5-9.3-7.9-14-11-27.8-6-7.4-7.1-6.5-12-4.6-2.1-8.2-.1-3.8.5-1.4.9-6.7,2-7.8.4-3.6-1.4-17.1.4-1.9,1.9-1.2,3.4-1,3-1.8,2.1-1.7,2.8-1.8,4.6-1.8,3.4-.1,14.9,3.4,49.9-17.2,4.9-2.8,2.6-3.2,1.8-3.4,1.6-4.2,2.1-9.4,2.5-3.2,4.7-2.5,3.7-.4,2.7-1.9,4-7,1.3-4-.6-38.4v-.1l.9-.4,4.3-.8,12.1.2,5.1-2.6,17-28.6h0Z"/>
    <path id="IR26" name="IR26" class="st0" d="m370.65,290.45l.7,2.3-.1,4.6-1.3,5-2.1,4.9-1.6,2.3-15.8,4.1-3.7-.2-10.1,1.2-4.5,1.9-1.8,1.8-.6,1.7-1.4,11.2,1,2.4,1.3.7-10.8-2.9-4.9-2.7-12.1-1.1-3.1-2.6-2.2-2.7-1.2-2.9.2-2.3-.7-1.7-1.4-1.6-1.3-.9-1.9.2-1.7-.8-2.1-1.9-2.6-2.9.5-3,4.4-2.5.5-1.1-1-1.4.1-3.7,2.6-2.2,4.3.6,4.1-1.2,2.8-1.9,5.8-.9,4.9-1.6.9-.6.5-2.2.9-8.8,1.5-4.5,1.4-1.9v.2l13.5.1,11.3,3.5,26.8,16h0Z"/>
    <path id="IR07" name="IR07" class="st0" d="m345.95,218.65l5.1,3,7.2.6,6.4,2.5,4.8,5.2,2.8,5.2,1.6,1.9,1.5.9,2.3.8,3.7.2,3.2-1.3,6.1-7.4,4.4-3.4,3.1.4,3.3,1.4,4.3.8,5.3,2.9,3.6.7,2.5-.3,1.5-.9,2.1.5,4.2,2.9,1.5,6.5.6,5.8-1.5,5.2-7.5,6.9-4.7,2.5-5.3,1.7-3.8-.1-10.6-3.1-3.6-.1-3.5-1.2-8.6-5.2-2.6-2.3-2.8-.1-1-.4-.6-.6-.8-.4-.8.9-.7,5.3-.8,3.5-.3,2.6.3,2.5,5.3,7,2.2,3.9-.6,3.5-2.4,3.8-1.5,4.6-.2,2.5-26.8-16-11.3-3.5-13.5-.1v-.2l4-13.2v-4l-1.2-2.4-2.2-2.7,1.3-2.9,3-1.8,2.5-3.1,1.3-3.5,4.2-.2.5-2.8.2-3.8,2.9-3.3,3.8-1.4,3.8.5,2.6-1.7v-3.2l.2-2.5h0Z"/>
    <path id="IR09" name="IR09" class="st0" d="m319.75,206.85l7.8,1.5,3,1.2.9,1.3,1.7,1.6,2,.9,7.7,1.7,3.1,3.6-.2,2.5v3.2l-2.6,1.7-3.8-.5-3.8,1.4-2.9,3.3-.2,3.8-.5,2.8-4.2.2-1.3,3.5-2.5,3.1-3,1.8-1.3,2.9-2.2.2-1.3,2.7-1.3.3-.3-2v-3.2l-1.8-2.1-2.7-.1-.6,1.6,1.8,2.5v1l-.5.8-1.1-.6-2.7-2.5-4.7-1.4-4.7-.3-2-.4-1.1-1.7-1.2-2.7-.4-1.8.6-2.2,2.6-2.5,9.6-4.7,1.6-1.6.5-2.1,2.3-4.7,1.5-5-2.2-1.9-3.3-1-1.8-1.5-2.4-3.3,1.4-2.1,5.3-.4,11.2,1.2h0Z"/>
</g>
</svg>